<svg id="horizontal-colored" xmlns="http://www.w3.org/2000/svg" xmlns:xlink="http://www.w3.org/1999/xlink" width="173" height="31.03" viewBox="0 0 173 31.03">
  <defs>
    <linearGradient id="linear-gradient" x1="-2.133" y1="12.266" x2="-2.106" y2="12.073" gradientUnits="objectBoundingBox">
      <stop offset="0" stop-color="#2c7fff"/>
      <stop offset="1" stop-color="#0741d2"/>
    </linearGradient>
  </defs>
  <path id="Fill-2-Copy-2" d="M0,38.1,7.714,51.28H23.143L15.429,38.1Z" transform="translate(0 -24.92)" fill="url(#linear-gradient)"/>
  <path id="Fill-3" d="M81.714,38.1,74,51.28H86.972L94.687,38.1Z" transform="translate(-48.401 -24.92)" fill="#2c7fff"/>
  <g id="Group_2" data-name="Group 2" transform="translate(53.135 9.444)">
    <path id="Path_25" data-name="Path 25" d="M158.789,53.373a6.96,6.96,0,0,1-1.972-.277,4.591,4.591,0,0,1-1.488-.726,5.111,5.111,0,0,1-1.072-1.038,5.025,5.025,0,0,1-.657-1.176l2.7-1.142a3.142,3.142,0,0,0,1.038,1.315,2.755,2.755,0,0,0,1.488.415,2.384,2.384,0,0,0,1.315-.311.841.841,0,0,0,.069-1.488,3.6,3.6,0,0,0-1.384-.519l-1.591-.346a5.263,5.263,0,0,1-1.107-.381,4.057,4.057,0,0,1-1.038-.657,3.921,3.921,0,0,1-.761-.934,2.6,2.6,0,0,1-.311-1.28,3.045,3.045,0,0,1,.346-1.488,3.3,3.3,0,0,1,.969-1.107,4.55,4.55,0,0,1,1.488-.692,6.188,6.188,0,0,1,1.833-.242,6.63,6.63,0,0,1,2.906.623,3.738,3.738,0,0,1,1.868,2.041L160.8,45.036a1.96,1.96,0,0,0-.934-.969,2.763,2.763,0,0,0-1.245-.311,2.528,2.528,0,0,0-1.142.277.81.81,0,0,0-.484.692.665.665,0,0,0,.415.623,4.387,4.387,0,0,0,1.107.415l1.73.415a5.4,5.4,0,0,1,2.594,1.315,3.117,3.117,0,0,1,.83,2.179,2.963,2.963,0,0,1-.346,1.418,3.916,3.916,0,0,1-.969,1.176,4.936,4.936,0,0,1-1.522.83A6.617,6.617,0,0,1,158.789,53.373Z" transform="translate(-153.6 -36.457)" fill="#3d3d3d"/>
    <path id="Path_26" data-name="Path 26" d="M195.39,51.709a3.332,3.332,0,0,1-1.28,1.211,4.235,4.235,0,0,1-2.179.519,4.774,4.774,0,0,1-2.076-.45,5.669,5.669,0,0,1-1.73-1.245,5.888,5.888,0,0,1-1.176-1.9,6.851,6.851,0,0,1-.45-2.422A6.161,6.161,0,0,1,186.95,45a5.889,5.889,0,0,1,1.176-1.9,5.669,5.669,0,0,1,1.73-1.245,4.774,4.774,0,0,1,2.076-.45,4.235,4.235,0,0,1,2.179.519,4.278,4.278,0,0,1,1.488,1.453V41.4h2.837V58.108H195.39Zm-2.871-1.072a3.047,3.047,0,0,0,1.142-.208,2.9,2.9,0,0,0,.969-.623,3.363,3.363,0,0,0,.657-1,3.524,3.524,0,0,0,.242-1.384,3.243,3.243,0,0,0-.242-1.349,2.975,2.975,0,0,0-.657-1,2.594,2.594,0,0,0-.969-.623,3.179,3.179,0,0,0-1.142-.208,2.506,2.506,0,0,0-1.142.242,3.685,3.685,0,0,0-.969.657,3.362,3.362,0,0,0-.657,1,3.88,3.88,0,0,0,0,2.7,2.975,2.975,0,0,0,.657,1,3.194,3.194,0,0,0,.969.657A6.43,6.43,0,0,0,192.519,50.636Z" transform="translate(-175.119 -36.522)" fill="#3d3d3d"/>
    <path id="Path_27" data-name="Path 27" d="M235.756,51.228a4.6,4.6,0,0,1-1.626,1.66,4.629,4.629,0,0,1-5.293-.83A5.5,5.5,0,0,1,227.8,48.53V41.3h3.044v6.884a2.586,2.586,0,0,0,.553,1.833,2.088,2.088,0,0,0,1.591.588,2.264,2.264,0,0,0,1.9-1,4.415,4.415,0,0,0,.519-1.072,5.251,5.251,0,0,0,.173-1.315V41.3h3.044V53.373h-2.837V51.228Z" transform="translate(-202.132 -36.457)" fill="#3d3d3d"/>
    <path id="Path_28" data-name="Path 28" d="M272.01,51.54a5.384,5.384,0,0,1-1.384,1.315,3.914,3.914,0,0,1-2.006.519,5.223,5.223,0,0,1-1.66-.277,4.349,4.349,0,0,1-1.349-.8,3.815,3.815,0,0,1-.9-1.211A3.957,3.957,0,0,1,264.4,49.5a3.464,3.464,0,0,1,.346-1.591,3.66,3.66,0,0,1,.969-1.211,4.164,4.164,0,0,1,1.453-.761A6.173,6.173,0,0,1,269,45.659a8.912,8.912,0,0,1,1.833.173,10.17,10.17,0,0,1,1.176.346v-.346a1.834,1.834,0,0,0-.726-1.487,2.809,2.809,0,0,0-1.8-.588,3.389,3.389,0,0,0-2.664,1.315l-2.214-1.488a5.952,5.952,0,0,1,4.947-2.283,5.749,5.749,0,0,1,4.013,1.245,4.625,4.625,0,0,1,1.384,3.667v7.161h-2.975V51.54Zm0-3.113a6.071,6.071,0,0,0-1.107-.415,4.739,4.739,0,0,0-1.245-.138,2.742,2.742,0,0,0-1.7.484,1.458,1.458,0,0,0-.588,1.176,1.3,1.3,0,0,0,.553,1.107,2.2,2.2,0,0,0,1.315.415,2.868,2.868,0,0,0,1.107-.208,2.555,2.555,0,0,0,.865-.588,2.684,2.684,0,0,0,.553-.83A2.242,2.242,0,0,0,272.01,48.426Z" transform="translate(-226.071 -36.457)" fill="#3d3d3d"/>
    <path id="Path_29" data-name="Path 29" d="M302,41.235h2.837v2.249a7.3,7.3,0,0,1,.726-1.072,4.284,4.284,0,0,1,.761-.623,3.827,3.827,0,0,1,.934-.415,3.371,3.371,0,0,1,.969-.173,3.015,3.015,0,0,1,1.038.138,3.544,3.544,0,0,1,.726.346l-.8,2.7a1.653,1.653,0,0,0-.623-.208,2.851,2.851,0,0,0-.83-.069,2.507,2.507,0,0,0-1.142.242,2.4,2.4,0,0,0-.865.692,3.738,3.738,0,0,0-.553,1.038,3.821,3.821,0,0,0-.208,1.28v5.95H302Z" transform="translate(-250.664 -36.392)" fill="#3d3d3d"/>
    <path id="Path_30" data-name="Path 30" d="M336.847,50.36a6.574,6.574,0,0,1-2.11,2.249,5.778,5.778,0,0,1-3.252.865,5.99,5.99,0,0,1-2.387-.45,6.05,6.05,0,0,1-1.9-1.245,5.344,5.344,0,0,1-1.245-1.9,6.044,6.044,0,0,1-.45-2.422,5.77,5.77,0,0,1,.45-2.318A5.912,5.912,0,0,1,327.16,43.2a6.067,6.067,0,0,1,1.868-1.315,6,6,0,0,1,2.387-.484,5.931,5.931,0,0,1,2.422.45,5.577,5.577,0,0,1,1.8,1.245,5.138,5.138,0,0,1,1.072,1.9,7.449,7.449,0,0,1,.381,2.352v.8H328.44a2.948,2.948,0,0,0,.381,1.176,2.428,2.428,0,0,0,.726.83,3,3,0,0,0,.934.484,3.571,3.571,0,0,0,1.038.138,3,3,0,0,0,1.73-.484,3.47,3.47,0,0,0,1.072-1.176Zm-2.767-4.393a1.318,1.318,0,0,0-.208-.657,1.917,1.917,0,0,0-.519-.692,2.828,2.828,0,0,0-.83-.519,3.1,3.1,0,0,0-1.176-.208,2.793,2.793,0,0,0-1.73.553A3.109,3.109,0,0,0,328.579,46h5.5Z" transform="translate(-266.034 -36.522)" fill="#3d3d3d"/>
    <path id="Path_31" data-name="Path 31" d="M364.4,27.3h3.044v6.607h0a3.1,3.1,0,0,1,1.28-1.211,4.235,4.235,0,0,1,2.179-.519,4.774,4.774,0,0,1,2.076.45,5.669,5.669,0,0,1,1.73,1.245,5.888,5.888,0,0,1,1.176,1.9,6.851,6.851,0,0,1,.45,2.422,6.161,6.161,0,0,1-.45,2.422,5.888,5.888,0,0,1-1.176,1.9,5.669,5.669,0,0,1-1.73,1.245,4.774,4.774,0,0,1-2.076.45,4.235,4.235,0,0,1-2.179-.519,4.187,4.187,0,0,1-1.487-1.522v2.006H364.4Zm5.881,14.114a2.506,2.506,0,0,0,1.142-.242,3.007,3.007,0,0,0,.969-.657,3.363,3.363,0,0,0,.657-1,3.88,3.88,0,0,0,0-2.7,2.975,2.975,0,0,0-.657-1,3.194,3.194,0,0,0-.969-.657,3.378,3.378,0,0,0-1.142-.242,3.047,3.047,0,0,0-1.142.208,2.594,2.594,0,0,0-.969.623,3.363,3.363,0,0,0-.657,1,3.465,3.465,0,0,0-.242,1.349,3.524,3.524,0,0,0,.242,1.384,2.974,2.974,0,0,0,.657,1,2.594,2.594,0,0,0,.969.623A2.038,2.038,0,0,0,370.281,41.414Z" transform="translate(-291.478 -27.3)" fill="#3d3d3d"/>
    <path id="Path_32" data-name="Path 32" d="M408.719,41.3a6.161,6.161,0,0,1,2.422.45,6.472,6.472,0,0,1,1.9,1.245,6.05,6.05,0,0,1,1.245,1.9,6.744,6.744,0,0,1,0,4.843,5.856,5.856,0,0,1-5.569,3.6,6.16,6.16,0,0,1-2.422-.45,5.563,5.563,0,0,1-3.148-3.148,6.744,6.744,0,0,1,0-4.843A5.563,5.563,0,0,1,406.3,41.75,6.851,6.851,0,0,1,408.719,41.3Zm0,9.271a3,3,0,0,0,1.107-.208,2.9,2.9,0,0,0,.969-.623,3.363,3.363,0,0,0,.657-1,3.524,3.524,0,0,0,.242-1.384A3.243,3.243,0,0,0,411.452,46a2.975,2.975,0,0,0-.657-1,2.594,2.594,0,0,0-.969-.623,3,3,0,0,0-1.107-.208,3.047,3.047,0,0,0-1.142.208,2.765,2.765,0,0,0-.934.623,3.363,3.363,0,0,0-.657,1,3.465,3.465,0,0,0-.242,1.349,3.524,3.524,0,0,0,.242,1.384,2.974,2.974,0,0,0,.657,1,2.765,2.765,0,0,0,.934.623A3.321,3.321,0,0,0,408.719,50.571Z" transform="translate(-316.529 -36.457)" fill="#3d3d3d"/>
    <path id="Path_33" data-name="Path 33" d="M448.845,51.574a5.439,5.439,0,0,1-1.488,1.349,3.652,3.652,0,0,1-1.937.45,5.223,5.223,0,0,1-1.66-.277,4.349,4.349,0,0,1-1.349-.8,3.815,3.815,0,0,1-.9-1.211A3.957,3.957,0,0,1,441.2,49.5a3.464,3.464,0,0,1,.346-1.591,3.659,3.659,0,0,1,.969-1.211,4.164,4.164,0,0,1,1.453-.761,6.173,6.173,0,0,1,1.833-.277,8.912,8.912,0,0,1,1.833.173,10.17,10.17,0,0,1,1.176.346v-.346a1.834,1.834,0,0,0-.726-1.487,2.809,2.809,0,0,0-1.8-.588,3.389,3.389,0,0,0-2.664,1.315l-2.214-1.488a5.952,5.952,0,0,1,4.947-2.283,5.749,5.749,0,0,1,4.013,1.245,4.625,4.625,0,0,1,1.384,3.667v7.161h-2.975v-1.8Zm0-3.148a6.071,6.071,0,0,0-1.107-.415,4.74,4.74,0,0,0-1.245-.138,2.743,2.743,0,0,0-1.7.484,1.458,1.458,0,0,0-.588,1.176,1.3,1.3,0,0,0,.553,1.107,2.2,2.2,0,0,0,1.315.415,2.868,2.868,0,0,0,1.107-.208,2.555,2.555,0,0,0,.865-.588,2.685,2.685,0,0,0,.553-.83A2.242,2.242,0,0,0,448.845,48.426Z" transform="translate(-341.71 -36.457)" fill="#3d3d3d"/>
    <path id="Path_34" data-name="Path 34" d="M478.106,38.454H476.1V35.859h2.006V32.4h3.044v3.459h2.767v2.594h-2.767v4.532a5.18,5.18,0,0,0,.069.761,1.6,1.6,0,0,0,.311.588,1.172,1.172,0,0,0,.934.381,2.577,2.577,0,0,0,.623-.069c.138-.069.311-.138.45-.208L484.4,47.1a4.032,4.032,0,0,1-1.142.381,8.085,8.085,0,0,1-1.349.138,4.119,4.119,0,0,1-1.522-.277,2.885,2.885,0,0,1-1.142-.761,4.006,4.006,0,0,1-1.072-3.01v-5.12Z" transform="translate(-364.537 -30.636)" fill="#3d3d3d"/>
  </g>
  <path id="Fill-1" d="M22.3,26.36H37.729l7.714-13.18L37.729,0Z" transform="translate(-14.586)" fill="#2c7fff"/>
</svg>
